<?xml version="1.0" standalone="no"?>
<!DOCTYPE svg PUBLIC "-//W3C//DTD SVG 20010904//EN"
 "http://www.w3.org/TR/2001/REC-SVG-20010904/DTD/svg10.dtd">
<svg version="1.0" xmlns="http://www.w3.org/2000/svg"
 width="256.000000pt" height="256.000000pt" viewBox="0 0 256.000000 256.000000"
 preserveAspectRatio="xMidYMid meet">
<metadata>
Created by potrace 1.14, written by Peter Selinger 2001-2017
</metadata>
<g transform="translate(0.000000,256.000000) scale(0.100000,-0.100000)"
fill="#000000" stroke="none">
<path d="M583 2061 l-90 -89 -29 24 c-46 37 -104 30 -127 -17 -21 -45 -11 -71
56 -137 58 -56 76 -66 119 -63 21 1 268 249 269 270 3 38 -4 57 -27 79 -46 41
-72 31 -171 -67z"/>
<path d="M1007 2000 c-74 -4 -91 -8 -103 -25 -35 -47 -24 -108 23 -126 18 -6
237 -10 627 -10 571 1 602 1 626 19 17 13 26 30 28 56 4 46 -17 73 -62 81 -39
8 -1021 12 -1139 5z"/>
<path d="M666 1498 c-11 -6 -54 -47 -97 -90 -77 -79 -78 -80 -96 -59 -37 44
-122 36 -138 -13 -16 -46 -6 -70 56 -132 62 -63 90 -77 125 -64 27 11 264 250
265 269 3 38 -4 57 -27 79 -27 24 -58 28 -88 10z"/>
<path d="M1037 1360 c-111 -5 -119 -6 -137 -30 -33 -42 -19 -103 27 -121 17
-6 242 -10 627 -10 574 0 601 1 625 19 18 13 27 30 29 56 4 46 -17 73 -63 82
-40 7 -949 11 -1108 4z"/>
<path d="M667 859 c-11 -6 -54 -46 -96 -90 l-78 -78 -22 20 c-12 12 -39 23
-60 26 -33 5 -41 1 -64 -26 -37 -44 -28 -74 45 -148 61 -62 89 -76 124 -63 32
12 264 251 265 274 2 39 -2 51 -27 74 -27 24 -58 28 -87 11z"/>
<path d="M1004 722 c-60 -2 -76 -7 -98 -27 -38 -35 -30 -101 14 -125 15 -8
200 -11 628 -11 577 1 608 1 632 19 17 13 26 30 28 56 4 46 -17 73 -62 81 -32
6 -1017 12 -1142 7z"/>
</g>
</svg>
