<svg width="423" height="434" viewBox="0 0 423 434" fill="none" xmlns="http://www.w3.org/2000/svg">
<path d="M346.015 119.763C346.015 119.763 338.092 124.313 340.545 130.753C340.545 130.753 348.775 133.207 352.098 139.29C355.421 145.373 381.337 167.302 381.337 167.302L400.2 157.846C400.2 157.846 393.606 149.053 372.852 142.97C372.852 142.97 360.584 129.833 356.341 127.38C352.098 124.926 346.015 119.763 346.015 119.763Z" fill="#CBCDDA"/>
<path opacity="0.05" d="M346.015 119.763C346.015 119.763 338.092 124.313 340.545 130.753C340.545 130.753 348.775 133.207 352.098 139.29C355.421 145.373 381.337 167.302 381.337 167.302L400.2 157.846C400.2 157.846 393.606 149.053 372.852 142.97C372.852 142.97 360.584 129.833 356.341 127.38C352.098 124.926 346.015 119.763 346.015 119.763Z" fill="black"/>
<path opacity="0.1" d="M72.2292 411.338C68.1398 412.36 63.897 411.185 59.7054 411.133C55.5137 411.082 50.6064 412.82 49.5841 416.91C48.2039 422.379 54.5936 426.469 60.0632 427.849C81.277 433.114 103.667 426.264 125.34 429.076C134.49 430.251 143.334 433.114 152.535 433.83C173.544 435.414 194.042 425.395 215.103 426.52C225.633 427.082 235.857 430.405 246.438 430.967C271.639 432.245 296.533 417.472 321.223 422.737C328.175 424.22 334.718 427.287 341.619 429.076C359.101 433.523 377.452 429.587 395.037 425.6C398.513 424.833 402.756 423.248 403.165 419.721C403.625 415.785 399.126 413.332 395.395 412.105C354.45 398.405 310.591 391.146 267.856 397.485C258.144 398.916 248.432 401.063 238.617 400.91C216.892 400.603 196.905 389.255 175.538 385.115C135.104 377.242 94.6187 395.594 57.5073 413.485" fill="#F94A23"/>
<path d="M128.254 295.148H115.884V399.836C115.884 399.836 195.832 425.753 273.53 399.836V295.148H128.254Z" fill="#333333"/>
<ellipse cx="194.707" cy="295.71" rx="78.8234" ry="11.8082" fill="#333333"/>
<path d="M283.907 170.012C264.278 242.496 197.161 287.327 197.161 287.327C197.161 287.327 161.787 214.74 181.416 142.306C200.994 69.8722 268.112 24.991 268.112 24.991C268.112 24.991 303.485 97.578 283.907 170.012Z" fill="#76A341"/>
<path d="M107.654 168.887C127.232 241.321 194.4 286.202 194.4 286.202C194.4 286.202 229.774 213.615 210.145 141.181C190.515 68.7477 123.398 23.8153 123.398 23.8153C123.398 23.8153 88.0245 96.4534 107.654 168.887Z" fill="#7CB93C"/>
<path d="M134.388 154.472C188.164 206.816 194.758 287.275 194.758 287.275C194.758 287.275 114.146 282.879 60.3699 230.535C6.59418 178.19 0 97.7313 0 97.7313C0 97.7313 80.6125 102.127 134.388 154.472Z" fill="#A1D169"/>
<path d="M255.077 154.472C201.301 206.816 194.758 287.275 194.758 287.275C194.758 287.275 275.371 282.879 329.146 230.535C382.922 178.19 389.516 97.7313 389.516 97.7313C389.516 97.7313 308.853 102.127 255.077 154.472Z" fill="#6E8E49"/>
<circle cx="194.707" cy="24.9399" r="24.792" fill="#F94A23"/>
<path d="M46.3637 200.324C48.1017 206.714 54.2358 210.599 54.2358 210.599C54.2358 210.599 57.5073 204.158 55.7182 197.769C53.9291 191.379 47.8461 187.494 47.8461 187.494C47.8461 187.494 44.6257 193.935 46.3637 200.324Z" fill="#7CB93C"/>
<path d="M79.2323 235.8C77.3409 242.139 80.4591 248.682 80.4591 248.682C80.4591 248.682 86.6443 244.95 88.5357 238.612C90.427 232.273 87.3089 225.73 87.3089 225.73C87.3089 225.73 81.1236 229.513 79.2323 235.8Z" fill="#7CB93C"/>
<path d="M316.367 276.592C311.715 281.295 311.408 288.502 311.408 288.502C311.408 288.502 318.616 288.093 323.268 283.391C327.919 278.688 328.226 271.48 328.226 271.48C328.226 271.48 321.018 271.838 316.367 276.592Z" fill="#7CB93C"/>
<path d="M395.344 379.594C395.344 379.594 396.264 392.987 397.797 394.52C399.331 396.054 384.098 396.974 384.098 396.974L386.245 379.594H395.344Z" fill="#FFB9B9"/>
<path opacity="0.05" d="M395.344 379.594C395.344 379.594 396.264 392.987 397.797 394.52C399.331 396.054 384.098 396.974 384.098 396.974L386.245 379.594H395.344Z" fill="black"/>
<path d="M398.717 389.971C398.717 389.971 396.57 389.971 388.954 393.907C388.954 393.907 383.791 392.987 381.644 385.677C381.644 385.677 375.254 396.667 370.961 397.229C366.667 397.792 358.488 398.456 363.957 405.766C369.427 413.076 401.733 409.702 401.733 409.702C401.733 409.702 402.653 392.067 398.717 389.971Z" fill="#CBCDDA"/>
<path opacity="0.05" d="M398.717 389.971C398.717 389.971 396.57 389.971 388.954 393.907C388.954 393.907 383.791 392.987 381.644 385.677C381.644 385.677 375.254 396.667 370.961 397.229C366.667 397.792 358.488 398.456 363.957 405.766C369.427 413.076 401.733 409.702 401.733 409.702C401.733 409.702 402.653 392.067 398.717 389.971Z" fill="black"/>
<path d="M394.168 400.296L392.021 406.073L378.015 402.137L378.833 396.412L379.037 395.031L379.548 391.198C379.548 391.198 391.407 388.13 391.407 389.664C391.561 390.942 391.816 392.169 392.174 393.396C392.685 395.287 393.299 397.383 393.708 398.814C393.963 399.683 394.168 400.296 394.168 400.296Z" fill="#FFB9B9"/>
<path d="M386.5 320.86C385.529 322.496 384.456 325.511 386.449 329.345C387.063 330.47 387.778 331.492 388.647 332.361C395.344 339.671 397.184 356.131 397.184 356.131V382.61L392.634 382.968L385.325 383.53L374.334 338.444C374.334 338.444 367.945 305.524 370.961 299.748C373.977 293.972 376.737 257.729 376.737 257.729L379.242 255.122L385.222 248.886H402.602C403.983 249.857 405.158 251.186 405.976 252.669C408.89 257.474 411.497 267.544 403.523 286.049C391.05 314.981 387.369 319.531 387.369 319.531C387.063 319.991 386.756 320.4 386.5 320.86Z" fill="#333333"/>
<path opacity="0.1" d="M392.174 393.344L378.986 394.98L379.497 391.146C379.497 391.146 391.356 388.079 391.356 389.613C391.561 390.891 391.816 392.118 392.174 393.344Z" fill="black"/>
<path d="M385.631 281.806C385.631 281.806 386.398 305.78 386.5 320.86C386.551 324.285 386.5 327.198 386.449 329.345C386.449 330.47 386.398 331.594 386.194 332.668C385.273 335.428 387.114 341.511 387.114 341.511C394.73 361.6 392.583 379.287 392.583 379.287V392.68L377.964 394.52C377.964 394.52 380.417 392.68 373.721 375.044C369.887 364.872 369.018 354.955 369.018 348.31C368.967 344.681 368.251 341.102 366.871 337.729C366.462 336.604 366.207 335.428 366.104 334.201C365.491 328.118 362.731 320.502 362.731 320.502C362.731 320.502 355.421 298.879 353.581 283.033C352.712 275.518 352.865 267.851 353.989 260.388C354.245 258.496 354.603 256.605 355.114 254.714C355.114 254.714 384.916 235.953 396.11 248.937C397.184 250.215 398.053 251.646 398.666 253.18C399.28 254.714 399.791 256.298 400.098 257.934C403.676 275.109 385.631 281.806 385.631 281.806Z" fill="#333333"/>
<circle cx="384.711" cy="132.849" r="15.5398" fill="#FFB9B9"/>
<path d="M376.175 142.613C376.175 142.613 382.564 160.606 376.175 170.012C369.785 179.417 396.57 176.401 396.57 176.401L406.947 163.929C406.947 163.929 394.781 163.929 394.168 142.613C393.555 121.297 376.175 142.613 376.175 142.613Z" fill="#FFB9B9"/>
<path opacity="0.1" d="M406.947 256.247C404.749 257.014 402.449 257.576 400.149 257.934C396.366 258.496 391.868 258.547 389.261 256.247C387.727 254.867 383.893 254.714 379.293 255.174C369.631 256.094 356.545 259.723 354.041 260.439C354.296 258.547 354.654 256.656 355.165 254.765C355.165 254.765 384.967 236.005 396.161 248.988H402.653C404.034 249.96 405.209 251.289 406.027 252.771C406.589 255.123 406.947 256.247 406.947 256.247Z" fill="black"/>
<path opacity="0.1" d="M394.168 400.296L392.021 406.073L378.015 402.137L378.833 396.411C381.235 401.728 385.324 402.443 385.324 402.443C389.772 400.143 392.328 399.172 393.708 398.763C393.963 399.683 394.168 400.296 394.168 400.296Z" fill="black"/>
<path d="M395.037 398.763C395.037 398.763 392.89 398.763 385.273 402.699C385.273 402.699 380.111 401.779 377.964 394.469C377.964 394.469 371.574 405.459 367.28 406.022C362.986 406.584 354.807 407.249 360.277 414.558C365.747 421.868 398.053 418.494 398.053 418.494C398.053 418.494 399.024 400.91 395.037 398.763Z" fill="#CBCDDA"/>
<path d="M322.808 135.814C322.808 135.814 323.421 123.955 335.894 125.13C337.07 125.233 337.939 126.306 337.836 127.431C337.785 127.686 337.734 127.993 337.581 128.249L335.025 133.054L322.808 135.814Z" fill="#FFB9B9"/>
<path d="M394.781 167.609C394.781 167.609 379.855 165.155 375.919 162.139C375.919 162.139 372.852 167.916 367.382 164.9C361.913 161.884 349.082 162.139 349.082 162.139C349.082 162.139 338.398 156.363 336.303 143.277C336.303 143.277 334.156 135.354 334.769 133.207C334.769 133.207 326.846 124.977 322.91 135.967C324.443 143.584 325.67 142.97 325.364 149.053L330.22 162.446C330.22 162.446 330.526 166.996 339.37 173.13C348.213 179.264 358.232 188.669 358.232 188.669C358.232 188.669 352.916 191.583 354.858 204.823C357.261 221.027 353.632 244.132 353.632 244.132V259.058C353.632 259.058 384.098 250.215 389.261 254.816C394.423 259.416 406.947 254.816 406.947 254.816C406.947 254.816 405.414 249.653 403.267 237.129C401.12 224.605 403.573 212.439 403.573 212.439C403.573 212.439 411.497 191.43 415.126 182.893C418.755 174.357 412.366 162.804 405.976 158.51C399.586 154.216 397.184 156.823 397.184 156.823C397.184 156.823 408.481 164.849 394.781 167.609Z" fill="#CBCDDA"/>
<path opacity="0.1" d="M367.893 129.066C367.893 129.68 367.996 130.344 368.2 130.907C368.558 131.571 369.018 132.185 369.631 132.696C371.932 134.945 373.925 137.552 374.692 140.67C375.254 142.766 375.203 144.964 375.152 147.111C374.999 155.852 374.641 165.309 369.274 172.159C367.28 174.663 364.724 176.708 362.322 178.855C361.964 179.111 361.708 179.417 361.606 179.826C361.555 180.235 361.606 180.644 361.81 181.053C362.935 183.353 365.286 184.785 367.484 186.063C368.507 186.676 369.58 187.238 370.756 187.289C373.516 187.392 375.357 184.478 377.861 183.302C381.542 181.615 385.631 183.967 389.312 185.705C391.97 186.983 394.73 187.903 397.542 188.567C401.427 189.487 405.874 189.692 409.145 187.392C411.037 186.063 412.315 184.018 412.775 181.718C413.03 180.235 412.979 178.497 414.104 177.475C414.666 176.964 415.484 176.759 416.097 176.299C417.069 175.583 417.529 174.408 417.938 173.232L421.669 162.957C422.129 161.884 422.385 160.708 422.385 159.533C422.18 157.079 419.931 155.29 417.631 154.319C415.331 153.347 412.826 152.887 410.781 151.456C407.356 149.002 406.334 144.453 406.027 140.261C405.823 137.399 405.823 134.536 406.078 131.622C406.436 127.38 407.305 122.83 405.414 119.047C403.42 114.958 398.871 112.862 394.679 111.124C393.043 110.46 391.408 109.744 389.67 109.693C387.829 109.591 386.04 110.204 384.251 110.817C381.491 111.789 378.628 113.016 375.766 113.68C374.13 114.038 372.392 113.782 370.858 114.345C365.286 116.543 367.893 124.466 367.893 129.066Z" fill="black"/>
<path d="M367.893 128.453C367.893 129.066 367.996 129.731 368.2 130.293C368.558 130.958 369.018 131.571 369.631 132.082C371.932 134.332 373.925 136.939 374.692 140.057C375.254 142.153 375.203 144.351 375.152 146.498C374.999 155.239 374.641 164.695 369.274 171.545C367.28 174.05 364.724 176.095 362.322 178.242C361.964 178.497 361.708 178.804 361.606 179.213C361.555 179.622 361.606 180.031 361.81 180.44C362.935 182.74 365.286 184.171 367.484 185.449C368.507 186.063 369.58 186.625 370.756 186.676C373.516 186.778 375.357 183.865 377.861 182.689C381.542 181.002 385.631 183.353 389.312 185.091C391.97 186.369 394.73 187.289 397.542 187.954C401.427 188.874 405.874 189.079 409.145 186.778C411.037 185.449 412.315 183.404 412.775 181.104C413.03 179.622 412.979 177.884 414.104 176.861C414.666 176.35 415.484 176.146 416.097 175.686C417.069 174.97 417.529 173.794 417.938 172.619L421.669 162.344C422.129 161.271 422.385 160.095 422.385 158.919C422.18 156.465 419.931 154.676 417.631 153.705C415.331 152.734 412.826 152.274 410.781 150.843C407.356 148.389 406.334 143.839 406.027 139.648C405.823 136.785 405.823 133.923 406.078 131.009C406.436 126.766 407.305 122.217 405.414 118.434C403.42 114.345 398.871 112.249 394.679 110.511C393.043 109.846 391.408 109.131 389.67 109.079C387.829 108.977 386.04 109.591 384.251 110.204C381.491 111.175 378.628 112.402 375.766 113.067C374.13 113.424 372.392 113.169 370.858 113.731C365.286 115.929 367.893 123.852 367.893 128.453Z" fill="#B96B6B"/>
<path opacity="0.05" d="M355.625 211.57C355.625 211.57 358.079 210.957 370.245 209.168C382.411 207.379 403.727 211.621 403.727 211.621" fill="black"/>
<path d="M20.8048 261.665C22.5428 268.055 28.677 271.94 28.677 271.94C28.677 271.94 31.9485 265.499 30.1594 259.11C28.4214 252.72 22.2873 248.835 22.2873 248.835C22.2873 248.835 19.0668 255.276 20.8048 261.665Z" fill="#7CB93C"/>
</svg>
