<svg width="35" height="35" viewBox="0 0 35 35" fill="none" xmlns="http://www.w3.org/2000/svg">
<circle cx="17.5" cy="17.5" r="17.5" fill="#4E4E4E"/>
<path d="M25.9468 13.278C25.9047 12.3235 25.7504 11.6672 25.5292 11.0985C25.3011 10.4949 24.9501 9.95448 24.4903 9.50522C24.0411 9.04897 23.4971 8.69445 22.9004 8.46989C22.3285 8.24876 21.6756 8.09439 20.7211 8.0523C19.7594 8.00665 19.454 7.99609 17.0149 7.99609C14.5757 7.99609 14.2704 8.00665 13.3122 8.04874C12.3576 8.09083 11.7014 8.24533 11.1328 8.46632C10.5291 8.69445 9.98865 9.04541 9.5394 9.50522C9.08315 9.95448 8.72876 10.4985 8.50407 11.0951C8.28294 11.6672 8.12857 12.3199 8.08648 13.2745C8.04083 14.2362 8.03027 14.5415 8.03027 16.9807C8.03027 19.4199 8.04083 19.7252 8.08292 20.6833C8.12501 21.6379 8.27951 22.2942 8.50064 22.8628C8.72877 23.4665 9.08315 24.0069 9.5394 24.4561C9.98866 24.9124 10.5326 25.2669 11.1293 25.4915C11.7014 25.7126 12.3541 25.867 13.3088 25.9091C14.2668 25.9513 14.5723 25.9617 17.0114 25.9617C19.4506 25.9617 19.7559 25.9513 20.7141 25.9091C21.6686 25.867 22.3249 25.7126 22.8934 25.4915C24.1008 25.0247 25.0554 24.0701 25.5222 22.8628C25.7432 22.2907 25.8977 21.6379 25.9398 20.6833C25.9819 19.7252 25.9924 19.4199 25.9924 16.9807C25.9924 14.5415 25.9889 14.2362 25.9468 13.2781L25.9468 13.278ZM24.329 20.6131C24.2903 21.4905 24.1429 21.9643 24.0201 22.2802C23.7182 23.0628 23.097 23.684 22.3144 23.9859C21.9985 24.1087 21.5213 24.2561 20.6473 24.2946C19.6997 24.3369 19.4155 24.3473 17.0184 24.3473C14.6214 24.3473 14.3336 24.3369 13.3894 24.2946C12.512 24.2561 12.0383 24.1087 11.7224 23.9859C11.3329 23.8419 10.9784 23.6138 10.6906 23.3155C10.3923 23.0242 10.1642 22.6732 10.0202 22.2837C9.8974 21.9679 9.75002 21.4905 9.7115 20.6167C9.66927 19.6691 9.65885 19.3847 9.65885 16.9877C9.65885 14.5906 9.66927 14.3028 9.7115 13.3588C9.75002 12.4814 9.8974 12.0076 10.0202 11.6918C10.1642 11.3021 10.3923 10.9478 10.6942 10.6599C10.9854 10.3615 11.3363 10.1334 11.726 9.9896C12.0418 9.86677 12.5192 9.71939 13.393 9.68073C14.3406 9.63864 14.6249 9.62809 17.0219 9.62809C19.4225 9.62809 19.7067 9.63864 20.6509 9.68073C21.5283 9.71939 22.0021 9.86677 22.3179 9.9896C22.7074 10.1334 23.0619 10.3615 23.3497 10.6599C23.648 10.9512 23.8761 11.3021 24.0201 11.6918C24.1429 12.0076 24.2903 12.4848 24.329 13.3588C24.371 14.3064 24.3816 14.5906 24.3816 16.9877C24.3816 19.3847 24.371 19.6655 24.329 20.6131L24.329 20.6131Z" fill="#EFEFEF"/>
<path d="M17.0148 12.3655C14.467 12.3655 12.3997 14.4326 12.3997 16.9806C12.3997 19.5286 14.467 21.5957 17.0148 21.5957C19.5629 21.5957 21.63 19.5286 21.63 16.9806C21.63 14.4326 19.5629 12.3655 17.0148 12.3655ZM17.0148 19.9743C15.3619 19.9743 14.0211 18.6337 14.0211 16.9806C14.0211 15.3275 15.3619 13.9869 17.0148 13.9869C18.668 13.9869 20.0086 15.3275 20.0086 16.9806C20.0086 18.6337 18.668 19.9743 17.0149 19.9743H17.0148Z" fill="#EFEFEF"/>
<path d="M22.89 12.1831C22.89 12.7781 22.4076 13.2606 21.8124 13.2606C21.2175 13.2606 20.735 12.7781 20.735 12.1831C20.735 11.588 21.2175 11.1057 21.8124 11.1057C22.4076 11.1057 22.89 11.588 22.89 12.1831Z" fill="#EFEFEF"/>
</svg>
