<svg width="42" height="42" viewBox="0 0 42 42" fill="none" xmlns="http://www.w3.org/2000/svg">
<g id="Cart Icon">
<path id="cart" d="M19.1264 29.1481C19.1264 29.5144 19.0194 29.8724 18.8188 30.177C18.6182 30.4815 18.3332 30.7189 17.9997 30.859C17.6661 30.9992 17.2991 31.0359 16.945 30.9644C16.591 30.893 16.2657 30.7166 16.0105 30.4576C15.7552 30.1986 15.5814 29.8687 15.5109 29.5094C15.4405 29.1502 15.4766 28.7779 15.6148 28.4395C15.753 28.1011 15.9869 27.8119 16.2871 27.6084C16.5872 27.4049 16.9401 27.2963 17.3011 27.2963C17.7852 27.2963 18.2495 27.4914 18.5918 27.8387C18.9341 28.186 19.1264 28.657 19.1264 29.1481ZM26.7926 27.2963C26.4316 27.2963 26.0787 27.4049 25.7786 27.6084C25.4784 27.8119 25.2444 28.1011 25.1063 28.4395C24.9681 28.7779 24.932 29.1502 25.0024 29.5094C25.0728 29.8687 25.2467 30.1986 25.502 30.4576C25.7572 30.7166 26.0825 30.893 26.4365 30.9644C26.7906 31.0359 27.1576 30.9992 27.4911 30.859C27.8247 30.7189 28.1097 30.4815 28.3103 30.177C28.5109 29.8724 28.6179 29.5144 28.6179 29.1481C28.6179 28.657 28.4256 28.186 28.0833 27.8387C27.741 27.4914 27.2767 27.2963 26.7926 27.2963ZM31.49 16.1417L28.9994 24.3546C28.8404 24.8858 28.5168 25.3507 28.0767 25.6805C27.6366 26.0102 27.1034 26.1872 26.5563 26.1852H17.5685C17.0136 26.1834 16.4741 25.9991 16.031 25.6601C15.588 25.3211 15.2651 24.8455 15.1108 24.3046L11.9905 13.2222H11.0952C10.8047 13.2222 10.5262 13.1052 10.3208 12.8968C10.1154 12.6884 10 12.4058 10 12.1111C10 11.8164 10.1154 11.5338 10.3208 11.3254C10.5262 11.1171 10.8047 11 11.0952 11H12.2652C12.6616 11.0012 13.0469 11.1329 13.3633 11.3751C13.6798 11.6173 13.9102 11.9571 14.0202 12.3435L14.6855 14.7037H30.4432C30.6146 14.7037 30.7836 14.7445 30.9366 14.8228C31.0896 14.9012 31.2224 15.0148 31.3242 15.1547C31.4261 15.2946 31.4941 15.4567 31.5229 15.6282C31.5517 15.7996 31.5404 15.9755 31.49 16.1417ZM28.9602 16.9259H15.3107L17.2172 23.6944C17.239 23.7719 17.2851 23.84 17.3485 23.8884C17.4119 23.9369 17.4892 23.963 17.5685 23.963H26.5563C26.6344 23.9631 26.7105 23.9378 26.7734 23.8908C26.8364 23.8438 26.8827 23.7776 26.9058 23.7019L28.9602 16.9259Z" fill="#9B9B9B"/>
<circle id="Ellipse 4" cx="21" cy="21" r="20.5" stroke="#9B9B9B"/>
</g>
</svg>
