<svg width="42" height="42" viewBox="0 0 42 42" fill="none" xmlns="http://www.w3.org/2000/svg">
<g id="Search Icon">
<path id="Search" d="M29.4444 31L22.4444 24C21.8889 24.4444 21.25 24.7963 20.5278 25.0556C19.8056 25.3148 19.037 25.4444 18.2222 25.4444C16.2037 25.4444 14.4956 24.7452 13.0978 23.3467C11.7 21.9481 11.0007 20.24 11 18.2222C11 16.2037 11.6993 14.4956 13.0978 13.0978C14.4963 11.7 16.2044 11.0007 18.2222 11C20.2407 11 21.9489 11.6993 23.3467 13.0978C24.7444 14.4963 25.4437 16.2044 25.4444 18.2222C25.4444 19.037 25.3148 19.8056 25.0556 20.5278C24.7963 21.25 24.4444 21.8889 24 22.4444L31 29.4444L29.4444 31ZM18.2222 23.2222C19.6111 23.2222 20.7919 22.7359 21.7644 21.7633C22.737 20.7907 23.223 19.6104 23.2222 18.2222C23.2222 16.8333 22.7359 15.6526 21.7633 14.68C20.7907 13.7074 19.6104 13.2215 18.2222 13.2222C16.8333 13.2222 15.6526 13.7085 14.68 14.6811C13.7074 15.6537 13.2215 16.8341 13.2222 18.2222C13.2222 19.6111 13.7085 20.7919 14.6811 21.7644C15.6537 22.737 16.8341 23.223 18.2222 23.2222Z" fill="#9B9B9B"/>
<circle id="Ellipse 3" cx="21" cy="21" r="20.5" stroke="#9B9B9B"/>
</g>
</svg>
