<svg width="45" height="45" viewBox="0 0 45 45" fill="none" xmlns="http://www.w3.org/2000/svg">
<g id="share">
<path id="Vector" d="M28 33C27.1667 33 26.4583 32.7083 25.875 32.125C25.2917 31.5417 25 30.8333 25 30C25 29.8833 25.0083 29.7623 25.025 29.637C25.0417 29.5117 25.0667 29.3993 25.1 29.3L18.05 25.2C17.7667 25.45 17.45 25.646 17.1 25.788C16.75 25.93 16.3833 26.0007 16 26C15.1667 26 14.4583 25.7083 13.875 25.125C13.2917 24.5417 13 23.8333 13 23C13 22.1667 13.2917 21.4583 13.875 20.875C14.4583 20.2917 15.1667 20 16 20C16.3833 20 16.75 20.071 17.1 20.213C17.45 20.355 17.7667 20.5507 18.05 20.8L25.1 16.7C25.0667 16.6 25.0417 16.4877 25.025 16.363C25.0083 16.2383 25 16.1173 25 16C25 15.1667 25.2917 14.4583 25.875 13.875C26.4583 13.2917 27.1667 13 28 13C28.8333 13 29.5417 13.2917 30.125 13.875C30.7083 14.4583 31 15.1667 31 16C31 16.8333 30.7083 17.5417 30.125 18.125C29.5417 18.7083 28.8333 19 28 19C27.6167 19 27.25 18.9293 26.9 18.788C26.55 18.6467 26.2333 18.4507 25.95 18.2L18.9 22.3C18.9333 22.4 18.9583 22.5127 18.975 22.638C18.9917 22.7633 19 22.884 19 23C19 23.1167 18.9917 23.2377 18.975 23.363C18.9583 23.4883 18.9333 23.6007 18.9 23.7L25.95 27.8C26.2333 27.55 26.55 27.3543 26.9 27.213C27.25 27.0717 27.6167 27.0007 28 27C28.8333 27 29.5417 27.2917 30.125 27.875C30.7083 28.4583 31 29.1667 31 30C31 30.8333 30.7083 31.5417 30.125 32.125C29.5417 32.7083 28.8333 33 28 33Z" fill="#9B9B9B"/>
<circle id="Ellipse 2" cx="22.5" cy="22.5" r="21.5" stroke="#9B9B9B" stroke-width="2"/>
</g>
</svg>
