<svg width="24" height="25" viewBox="0 0 24 25" fill="none" xmlns="http://www.w3.org/2000/svg">
<g id="ant-design:star-filled">
<path id="Vector" d="M21.2836 8.55056L15.3328 7.68571L12.6727 2.29275C12.6 2.14509 12.4805 2.02556 12.3328 1.9529C11.9625 1.77009 11.5125 1.92243 11.3273 2.29275L8.66718 7.68571L2.7164 8.55056C2.55234 8.574 2.40234 8.65134 2.2875 8.76853C2.14866 8.91123 2.07215 9.10322 2.07479 9.3023C2.07743 9.50138 2.15899 9.69127 2.30156 9.83025L6.60703 14.0279L5.58984 19.9552C5.56599 20.0931 5.58125 20.2349 5.63389 20.3646C5.68652 20.4942 5.77444 20.6066 5.88766 20.6888C6.00088 20.771 6.13487 20.8199 6.27445 20.8298C6.41403 20.8398 6.5536 20.8104 6.67734 20.7451L12 17.9467L17.3227 20.7451C17.468 20.8224 17.6367 20.8482 17.7984 20.8201C18.2062 20.7498 18.4805 20.3631 18.4102 19.9552L17.393 14.0279L21.6984 9.83025C21.8156 9.7154 21.893 9.5654 21.9164 9.40134C21.9797 8.99118 21.6937 8.6115 21.2836 8.55056Z" fill="#F2C94C"/>
</g>
</svg>
