<svg width="30" height="25" viewBox="0 0 30 25" fill="none" xmlns="http://www.w3.org/2000/svg">
<path d="M6.71518 25H0.495536V8.30878H6.71518V25ZM3.60201 6.03194C1.61317 6.03194 0 4.65914 0 3.00174C1.42353e-08 2.20563 0.379496 1.44213 1.055 0.87919C1.73051 0.316254 2.6467 0 3.60201 0C4.55732 0 5.47351 0.316254 6.14901 0.87919C6.82452 1.44213 7.20402 2.20563 7.20402 3.00174C7.20402 4.65914 5.59018 6.03194 3.60201 6.03194ZM29.9933 25H23.7871V16.8748C23.7871 14.9384 23.7402 12.4551 20.5533 12.4551C17.3196 12.4551 16.8241 14.5589 16.8241 16.7353V25H10.6112V8.30878H16.5763V10.5856H16.6634C17.4937 9.2742 19.5221 7.89024 22.5482 7.89024C28.8429 7.89024 30 11.3446 30 15.8313V25H29.9933Z" fill="#4B4F61"/>
</svg>
