<svg width="34" height="24" viewBox="0 0 34 24" fill="none" xmlns="http://www.w3.org/2000/svg">
<path d="M30.5052 5.98123C30.5267 6.24372 30.5267 6.50626 30.5267 6.76875C30.5267 14.775 23.5153 24 10.7005 24C6.75255 24 3.08505 23.0062 0 21.2813C0.560936 21.3375 1.10022 21.3563 1.68274 21.3563C4.94031 21.3563 7.9391 20.4 10.3338 18.7688C7.27032 18.7125 4.70304 16.9688 3.81851 14.5687C4.25002 14.625 4.68146 14.6625 5.13455 14.6625C5.76017 14.6625 6.38585 14.5874 6.9683 14.4563C3.77541 13.8937 1.38066 11.4562 1.38066 8.51249V8.43752C2.30829 8.88752 3.38706 9.16877 4.53039 9.20622C2.65347 8.1187 1.42382 6.26247 1.42382 4.16246C1.42382 3.03748 1.76894 2.00623 2.37304 1.10622C5.80327 4.78122 10.9594 7.18118 16.7411 7.44372C16.6332 6.99372 16.5685 6.52502 16.5685 6.05626C16.5685 2.71872 19.6751 0 23.5368 0C25.5431 0 27.3553 0.731248 28.6282 1.9125C30.203 1.65001 31.7132 1.14374 33.0508 0.450003C32.5329 1.85628 31.4327 3.03754 29.9873 3.78748C31.3896 3.6563 32.7488 3.31872 34 2.85002C33.0509 4.04997 31.8643 5.11868 30.5052 5.98123Z" fill="#4B4F61"/>
</svg>
