<svg width="35" height="35" viewBox="0 0 35 35" fill="none" xmlns="http://www.w3.org/2000/svg">
<circle cx="17.5" cy="17.5" r="17.5" fill="#4E4E4E"/>
<path d="M24.9929 24.4103V24.4096H24.9967V18.7575C24.9967 15.9925 24.4015 13.8625 21.169 13.8625C19.615 13.8625 18.5722 14.7153 18.1464 15.5238H18.1015V14.1207H15.0366V24.4096H18.228V19.3149C18.228 17.9735 18.4823 16.6764 20.1435 16.6764C21.7803 16.6764 21.8047 18.2072 21.8047 19.401V24.4103L24.9929 24.4103Z" fill="#EFEFEF"/>
<path d="M9.83972 14.1213H13.035V24.4103H9.83972L9.83972 14.1213Z" fill="#EFEFEF"/>
<path d="M11.4361 8.99902C10.4144 8.99902 9.58545 9.82802 9.58545 10.8497C9.58545 11.8713 10.4144 12.7176 11.4361 12.7176C12.4577 12.7176 13.2867 11.8713 13.2867 10.8497C13.2861 9.82802 12.4571 8.99902 11.4361 8.99902Z" fill="#EFEFEF"/>
</svg>
