<svg width="35" height="35" viewBox="0 0 35 35" fill="none" xmlns="http://www.w3.org/2000/svg">
<path d="M17.5 0C27.165 0 35 7.83502 35 17.5C35 27.165 27.165 35 17.5 35C7.83502 35 0 27.165 0 17.5C0 7.83502 7.83502 0 17.5 0Z" fill="#F94A23"/>
<path d="M19.8837 11.5595H21.4211V8.88177C21.1559 8.84528 20.2436 8.76318 19.1813 8.76318C16.9646 8.76318 15.4461 10.1575 15.4461 12.7201V15.0785H13V18.0719H15.4461V25.604H18.4452V18.0726H20.7924L21.165 15.0792H18.4445V13.0169C18.4452 12.1517 18.6782 11.5595 19.8837 11.5595V11.5595Z" fill="white"/>
</svg>
