<svg width="346" height="43" viewBox="0 0 346 43" fill="none" xmlns="http://www.w3.org/2000/svg">
<path d="M4.98 0.659999H0.06V42H18.54V37.08H4.98V0.659999ZM39.8081 29.4V24.48H26.2481V5.58H39.2681V0.659999H21.3281V42H39.8081V37.08H26.2481V29.4H39.8081ZM79.3819 20.22H66.8419V24.96H74.2219C74.1619 27.18 73.5619 29.28 72.4219 31.2C69.8419 34.56 66.0019 36.72 61.6819 36.72C53.9419 36.72 47.7019 29.82 47.7019 21.3C47.7019 12.78 53.9419 5.88 61.6819 5.88C66.2419 5.88 70.2619 8.28 72.7819 12L76.7419 8.46C73.2019 3.66 67.8019 0.599997 61.6819 0.599997C51.0619 0.599997 42.4219 9.9 42.4219 21.3C42.4219 32.7 51.0619 42 61.6819 42C66.7219 42 71.2819 39.9 74.7019 36.54C79.3819 32.28 80.4619 26.1 79.3819 20.22ZM98.9859 0.659999H91.7259L83.0859 42H88.0059L95.3259 7.26L102.646 42H107.866L98.9859 0.659999ZM91.9059 28.38L95.3859 34.14L98.6859 28.38L95.4459 21.12L91.9059 28.38ZM130.724 36.72C122.984 36.72 116.744 29.76 116.744 21.3C116.744 12.78 122.984 5.82 130.724 5.82C135.224 5.82 139.304 8.22 141.824 11.94L145.784 8.46C142.244 3.66 136.844 0.599997 130.724 0.599997C120.104 0.599997 111.464 9.84 111.464 21.3C111.464 32.7 120.104 42 130.724 42C136.844 42 142.244 38.88 145.784 34.14L141.824 30.6C139.304 34.32 135.224 36.72 130.724 36.72ZM175.163 0.659999H169.643L160.883 16.38L152.063 0.659999H146.543L158.363 21.78V42H163.283V21.84L175.163 0.659999ZM204.549 22.8L205.869 20.1H203.469V0.659999H198.549V42H203.469V25.02H205.869L204.549 22.8ZM216.669 0.659999V20.1H214.509L215.709 22.8L214.509 25.02H216.669V42H221.589V0.659999H216.669ZM210.249 15.6L208.029 20.1L206.709 22.8L208.089 25.02L210.249 28.62L213.549 22.8L212.289 20.1L210.249 15.6ZM243.555 0.719999C232.935 0.719999 224.355 9.96 224.355 21.36C224.355 32.76 232.935 42 243.555 42C254.115 42 262.695 32.76 262.695 21.36C262.695 9.96 254.115 0.719999 243.555 0.719999ZM243.555 36.72C235.875 36.72 229.635 29.82 229.635 21.36C229.635 12.9 235.875 6 243.555 6C251.235 6 257.475 12.9 257.475 21.36C257.475 29.82 251.235 36.72 243.555 36.72ZM292.995 17.4V27.84L293.355 27.12L295.575 22.98L297.615 27.12L297.915 27.72V0.659999H292.995L281.235 11.82L269.295 0.659999H264.375V42H269.295V17.28L281.235 28.44L292.995 17.4ZM269.295 7.26L281.235 18.42L292.995 7.38V10.86L281.235 21.84L269.295 10.74V7.26ZM295.575 37.8L297.615 34.2L298.875 32.04L297.615 29.28L295.575 24.78L293.355 29.28L292.035 32.04L293.355 34.2L295.575 37.8ZM295.575 39.48L293.355 35.88L292.995 35.22V42H297.915V35.34L297.615 35.88L295.575 39.48ZM319.418 29.4V24.48H305.858V5.58H318.878V0.659999H300.938V42H319.418V37.08H305.858V29.4H319.418ZM337.871 42.24C344.951 36.96 345.491 34.02 345.431 30.42L345.371 29.82C345.371 25.38 343.691 21.84 335.231 18.84C329.651 16.86 326.591 14.16 326.651 11.22C326.711 9.84 328.271 5.76 332.951 5.76C337.391 5.76 339.551 9.66 339.611 9.78L343.991 7.5C343.871 7.26 340.451 0.899996 332.951 0.899996C325.751 0.899996 321.851 6.84 321.731 11.16C321.671 14.82 323.711 19.92 333.551 23.46C340.511 25.92 340.511 27.96 340.511 29.82V30.54C340.511 32.58 340.571 34.08 334.931 38.28L337.871 42.24Z" fill="white"/>
</svg>
