<svg width="42" height="42" fill="none" xmlns="http://www.w3.org/2000/svg"><path d="M19.126 29.148c0 .366-.107.724-.307 1.029-.2.305-.486.542-.82.682a1.8 1.8 0 01-1.988-.401 1.877 1.877 0 01-.396-2.018c.138-.339.372-.628.672-.832a1.806 1.806 0 012.305.23c.342.348.534.819.534 1.31zm7.667-1.852a1.81 1.81 0 00-1.014.312c-.3.204-.535.493-.673.831a1.877 1.877 0 00.396 2.019 1.8 1.8 0 001.99.401 1.83 1.83 0 00.818-.682 1.871 1.871 0 00-.227-2.338 1.812 1.812 0 00-1.29-.543zm4.697-11.154L29 24.355a2.58 2.58 0 01-.923 1.325 2.52 2.52 0 01-1.52.505h-8.988a2.543 2.543 0 01-1.538-.525 2.606 2.606 0 01-.92-1.355l-3.12-11.083h-.896c-.29 0-.569-.117-.774-.325a1.12 1.12 0 010-1.572c.205-.208.484-.325.774-.325h1.17c.397.001.782.133 1.098.375.317.242.547.582.657.969l.665 2.36h15.758a1.083 1.083 0 01.881.45 1.119 1.119 0 01.166.988zm-2.53.784H15.31l1.907 6.768a.37.37 0 00.352.269h8.987a.362.362 0 00.35-.261l2.054-6.776z" fill="#9B9B9B"/><circle cx="21" cy="21" r="20.5" stroke="#9B9B9B"/></svg>