<svg width="42" height="42" fill="none" xmlns="http://www.w3.org/2000/svg"><path d="M29.444 31l-7-7a6.774 6.774 0 01-4.222 1.444c-2.018 0-3.726-.699-5.124-2.097C11.7 21.948 11 20.24 11 18.222s.7-3.726 2.098-5.124C14.496 11.7 16.204 11 18.222 11c2.019 0 3.727.7 5.125 2.098 1.397 1.398 2.097 3.106 2.097 5.124A6.774 6.774 0 0124 22.444l7 7L29.444 31zm-11.222-7.778c1.39 0 2.57-.486 3.542-1.459.973-.972 1.459-2.153 1.458-3.54 0-1.39-.486-2.57-1.459-3.543-.972-.973-2.153-1.458-3.54-1.458-1.39 0-2.57.487-3.543 1.46-.973.972-1.458 2.152-1.458 3.54 0 1.39.487 2.57 1.46 3.542.972.973 2.152 1.459 3.54 1.458z" fill="#9B9B9B"/><circle cx="21" cy="21" r="20.5" stroke="#9B9B9B"/></svg>