<svg width="45" height="45" fill="none" xmlns="http://www.w3.org/2000/svg"><path d="M28 33a2.893 2.893 0 01-2.125-.875A2.893 2.893 0 0125 30c0-.117.008-.238.025-.363s.042-.238.075-.337l-7.05-4.1c-.283.25-.6.446-.95.588A2.88 2.88 0 0116 26a2.893 2.893 0 01-2.125-.875A2.893 2.893 0 0113 23c0-.833.292-1.542.875-2.125A2.893 2.893 0 0116 20a2.9 2.9 0 011.1.213c.35.142.667.338.95.587l7.05-4.1a1.842 1.842 0 01-.075-.337A2.734 2.734 0 0125 16c0-.833.292-1.542.875-2.125A2.893 2.893 0 0128 13c.833 0 1.542.292 2.125.875S31 15.167 31 16s-.292 1.542-.875 2.125A2.893 2.893 0 0128 19c-.383 0-.75-.07-1.1-.212a3.271 3.271 0 01-.95-.588l-7.05 4.1c.033.1.058.213.075.338a2.741 2.741 0 010 .725 1.818 1.818 0 01-.075.337l7.05 4.1c.283-.25.6-.446.95-.587.35-.141.717-.212 1.1-.213.833 0 1.542.292 2.125.875S31 29.167 31 30s-.292 1.542-.875 2.125A2.893 2.893 0 0128 33z" fill="#9B9B9B"/><circle cx="22.5" cy="22.5" r="21.5" stroke="#9B9B9B" stroke-width="2"/></svg>