<?xml version="1.0" encoding="utf-8"?><svg viewBox="0 0 45 45" xmlns="http://www.w3.org/2000/svg" xmlns:xlink="http://www.w3.org/1999/xlink"><style>:root>svg{display:none}:root>svg:target{display:block}</style><svg fill="none" viewBox="0 0 32 32" id="arrow-icon" xmlns="http://www.w3.org/2000/svg"><path d="m23.693 5.027-2.36-2.36L8 16l13.333 13.333 2.36-2.36L12.72 16 23.693 5.027z" fill="#9D9D9D"/></svg><svg fill="none" viewBox="0 0 42 42" id="cart-icon" xmlns="http://www.w3.org/2000/svg"><path d="M19.126 29.148c0 .366-.107.724-.307 1.029-.2.305-.486.542-.82.682a1.8 1.8 0 0 1-1.988-.401 1.877 1.877 0 0 1-.396-2.018c.138-.339.372-.628.672-.832a1.806 1.806 0 0 1 2.305.23c.342.348.534.819.534 1.31zm7.667-1.852a1.81 1.81 0 0 0-1.014.312c-.3.204-.535.493-.673.831a1.877 1.877 0 0 0 .396 2.019 1.8 1.8 0 0 0 1.99.401 1.83 1.83 0 0 0 .818-.682 1.871 1.871 0 0 0-.227-2.338 1.812 1.812 0 0 0-1.29-.543zm4.697-11.154L29 24.355a2.58 2.58 0 0 1-.923 1.325 2.52 2.52 0 0 1-1.52.505h-8.988a2.543 2.543 0 0 1-1.538-.525 2.606 2.606 0 0 1-.92-1.355l-3.12-11.083h-.896c-.29 0-.569-.117-.774-.325a1.12 1.12 0 0 1 0-1.572c.205-.208.484-.325.774-.325h1.17c.397.001.782.133 1.098.375.317.242.547.582.657.969l.665 2.36h15.758a1.083 1.083 0 0 1 .881.45 1.119 1.119 0 0 1 .166.988zm-2.53.784H15.31l1.907 6.768a.37.37 0 0 0 .352.269h8.987a.362.362 0 0 0 .35-.261l2.054-6.776z" fill="#9B9B9B"/><circle cx="21" cy="21" r="20.5" stroke="#9B9B9B"/></svg><svg fill="none" viewBox="0 0 42 42" id="search-icon" xmlns="http://www.w3.org/2000/svg"><path d="m29.444 31-7-7a6.774 6.774 0 0 1-4.222 1.444c-2.018 0-3.726-.699-5.124-2.097C11.7 21.948 11 20.24 11 18.222s.7-3.726 2.098-5.124C14.496 11.7 16.204 11 18.222 11c2.019 0 3.727.7 5.125 2.098 1.397 1.398 2.097 3.106 2.097 5.124A6.774 6.774 0 0 1 24 22.444l7 7L29.444 31zm-11.222-7.778c1.39 0 2.57-.486 3.542-1.459.973-.972 1.459-2.153 1.458-3.54 0-1.39-.486-2.57-1.459-3.543-.972-.973-2.153-1.458-3.54-1.458-1.39 0-2.57.487-3.543 1.46-.973.972-1.458 2.152-1.458 3.54 0 1.39.487 2.57 1.46 3.542.972.973 2.152 1.459 3.54 1.458z" fill="#9B9B9B"/><circle cx="21" cy="21" r="20.5" stroke="#9B9B9B"/></svg><svg fill="none" viewBox="0 0 45 45" id="share-icon" xmlns="http://www.w3.org/2000/svg"><path d="M28 33a2.893 2.893 0 0 1-2.125-.875A2.893 2.893 0 0 1 25 30c0-.117.008-.238.025-.363s.042-.238.075-.337l-7.05-4.1c-.283.25-.6.446-.95.588A2.88 2.88 0 0 1 16 26a2.893 2.893 0 0 1-2.125-.875A2.893 2.893 0 0 1 13 23c0-.833.292-1.542.875-2.125A2.893 2.893 0 0 1 16 20a2.9 2.9 0 0 1 1.1.213c.35.142.667.338.95.587l7.05-4.1a1.842 1.842 0 0 1-.075-.337A2.734 2.734 0 0 1 25 16c0-.833.292-1.542.875-2.125A2.893 2.893 0 0 1 28 13c.833 0 1.542.292 2.125.875S31 15.167 31 16s-.292 1.542-.875 2.125A2.893 2.893 0 0 1 28 19c-.383 0-.75-.07-1.1-.212a3.271 3.271 0 0 1-.95-.588l-7.05 4.1c.033.1.058.213.075.338a2.741 2.741 0 0 1 0 .725 1.818 1.818 0 0 1-.075.337l7.05 4.1c.283-.25.6-.446.95-.587.35-.141.717-.212 1.1-.213.833 0 1.542.292 2.125.875S31 29.167 31 30s-.292 1.542-.875 2.125A2.893 2.893 0 0 1 28 33z" fill="#9B9B9B"/><circle cx="22.5" cy="22.5" r="21.5" stroke="#9B9B9B" stroke-width="2"/></svg></svg>