<svg width="45" height="54" viewBox="0 0 45 54" fill="none" xmlns="http://www.w3.org/2000/svg">
<path d="M37.6235 28.2984C37.5996 23.9107 39.5842 20.5991 43.6012 18.1602C41.3536 14.9442 37.9583 13.1748 33.475 12.8281C29.2309 12.4934 24.5922 15.3029 22.8945 15.3029C21.1012 15.3029 16.9886 12.9477 13.7606 12.9477C7.08953 13.0553 0 18.2678 0 28.8722C0 32.0045 0.573858 35.2404 1.72157 38.58C3.25186 42.9676 8.77524 53.7274 14.5377 53.5481C17.5505 53.4764 19.6785 51.4081 23.5999 51.4081C27.4017 51.4081 29.3743 53.5481 32.7338 53.5481C38.5441 53.4644 43.5414 43.6849 45 39.2853C37.2051 35.615 37.6235 28.5255 37.6235 28.2984ZM30.8568 8.66764C34.1206 4.7941 33.8217 1.26727 33.7261 0C30.8448 0.167375 27.5093 1.96068 25.6084 4.17242C23.5162 6.53959 22.2848 9.46865 22.5478 12.7683C25.6682 13.0074 28.5136 11.4054 30.8568 8.66764Z" fill="white"/>
</svg>
